<?xml version="1.0" encoding="utf-8"?>
<!-- Generator: Adobe Illustrator 14.0.0, SVG Export Plug-In . SVG Version: 6.00 Build 43363)  -->
<!DOCTYPE svg PUBLIC "-//W3C//DTD SVG 1.1//EN" "http://www.w3.org/Graphics/SVG/1.1/DTD/svg11.dtd">
<svg version="1.1" id="Layer_1" xmlns="http://www.w3.org/2000/svg" xmlns:xlink="http://www.w3.org/1999/xlink" x="0px" y="0px"
	 width="165px" height="24px" viewBox="0 0 165 24" enable-background="new 0 0 165 24" xml:space="preserve">
<g id="g4593" transform="translate(370,10)">
	<path id="rect2432" fill="#808080" d="M-368.5-9.25h27c0.829,0,1.5,0.671,1.5,1.5v19.5c0,0.829-0.671,1.5-1.5,1.5h-27
		c-0.829,0-1.5-0.671-1.5-1.5v-19.5C-370-8.579-369.329-9.25-368.5-9.25z"/>
	<path id="rect3204" sodipodi:nodetypes="csccscccsccscccsccscc" fill="#FFFFFF" d="M-361.75-3.25c-0.416,0-0.75,0.334-0.75,0.75
		s0.334,0.75,0.75,0.75h13.5c0.416,0,0.75-0.334,0.75-0.75s-0.334-0.75-0.75-0.75H-361.75z M-361.75,1.25
		c-0.416,0-0.75,0.334-0.75,0.75s0.334,0.75,0.75,0.75h13.5c0.416,0,0.75-0.334,0.75-0.75s-0.334-0.75-0.75-0.75H-361.75z
		 M-361.75,5.75c-0.416,0-0.75,0.334-0.75,0.75s0.334,0.75,0.75,0.75h13.5c0.416,0,0.75-0.334,0.75-0.75s-0.334-0.75-0.75-0.75
		H-361.75z"/>
</g>
<g id="g4583" transform="translate(340,40)">
	<path id="rect3224" fill="#808080" d="M-289-26.5v3c0,0.414,0.335,0.75,0.75,0.75h22.5c0.414,0,0.75-0.336,0.75-0.75v-3
		c0-0.414-0.336-0.75-0.75-0.75h-22.5C-288.665-27.25-289-26.914-289-26.5z"/>
	<path id="rect3226" fill="#808080" d="M-289-32.5v3c0,0.414,0.335,0.75,0.75,0.75h22.5c0.414,0,0.75-0.336,0.75-0.75v-3
		c0-0.414-0.336-0.75-0.75-0.75h-22.5C-288.665-33.25-289-32.914-289-32.5z"/>
	<path id="rect3230" fill="#808080" d="M-295-32.5v3c0,0.414,0.335,0.75,0.75,0.75h3c0.415,0,0.75-0.336,0.75-0.75v-3
		c0-0.414-0.335-0.75-0.75-0.75h-3C-294.665-33.25-295-32.914-295-32.5z"/>
	<path id="rect3232" fill="#808080" d="M-295-26.5v3c0,0.414,0.335,0.75,0.75,0.75h3c0.415,0,0.75-0.336,0.75-0.75v-3
		c0-0.414-0.335-0.75-0.75-0.75h-3C-294.665-27.25-295-26.914-295-26.5z"/>
	<path id="rect3269" fill="#808080" d="M-289-20.5v3c0,0.414,0.335,0.75,0.75,0.75h22.5c0.414,0,0.75-0.336,0.75-0.75v-3
		c0-0.414-0.336-0.75-0.75-0.75h-22.5C-288.665-21.25-289-20.914-289-20.5z"/>
	<path id="rect3271" fill="#808080" d="M-295-20.5v3c0,0.414,0.335,0.75,0.75,0.75h3c0.415,0,0.75-0.336,0.75-0.75v-3
		c0-0.414-0.335-0.75-0.75-0.75h-3C-294.665-21.25-295-20.914-295-20.5z"/>
	<path id="rect3273" fill="#808080" d="M-289-38.5v3c0,0.414,0.335,0.75,0.75,0.75h22.5c0.414,0,0.75-0.336,0.75-0.75v-3
		c0-0.414-0.336-0.75-0.75-0.75h-22.5C-288.665-39.25-289-38.914-289-38.5z"/>
	<path id="rect3275" fill="#808080" d="M-295-38.5v3c0,0.414,0.335,0.75,0.75,0.75h3c0.415,0,0.75-0.336,0.75-0.75v-3
		c0-0.414-0.335-0.75-0.75-0.75h-3C-294.665-39.25-295-38.914-295-38.5z"/>
</g>
<g>
	<path fill="#808080" d="M118.5,0.75h-27c-0.829,0-1.5,0.671-1.5,1.5v19.5c0,0.829,0.671,1.5,1.5,1.5h27c0.829,0,1.5-0.671,1.5-1.5
		V2.25C120,1.421,119.329,0.75,118.5,0.75z"/>
	<g>
		<path fill="#FFFFFF" d="M94.781,18.976c-0.155,0-0.311-0.047-0.445-0.146c-0.332-0.245-0.404-0.715-0.158-1.048l6.211-8.438
			l6.586,4.014l8.268-8.552c0.287-0.297,0.762-0.305,1.061-0.018c0.297,0.287,0.307,0.764,0.018,1.061l-9.103,9.413l-6.437-3.923
			l-5.396,7.332C95.238,18.87,95.012,18.976,94.781,18.976L94.781,18.976z"/>
	</g>
</g>
<path fill="#808080" d="M163.5,0.75h-27c-0.829,0-1.5,0.671-1.5,1.5v19.5c0,0.829,0.671,1.5,1.5,1.5h27c0.829,0,1.5-0.671,1.5-1.5
	V2.25C165,1.421,164.329,0.75,163.5,0.75z"/>
<g>
	<path id="path3258" fill-opacity="0" d="M150,4c-1.34,0-2.609,0.322-3.719,0.906c-1.236,1.455-2.065,3.63-2.25,6.094h-1.969
		c-0.041,0.328-0.062,0.661-0.062,1s0.021,0.672,0.062,1h1.969c0.185,2.464,1.014,4.639,2.25,6.094C147.391,19.678,148.66,20,150,20
		s2.609-0.322,3.719-0.906c1.236-1.455,2.065-3.63,2.25-6.094h1.969c0.041-0.328,0.062-0.661,0.062-1s-0.021-0.672-0.062-1h-1.969
		c-0.185-2.464-1.014-4.639-2.25-6.094C152.609,4.322,151.34,4,150,4z M149,4.218V11h-2.969C146.247,8.103,147.396,5.615,149,4.218z
		 M151,4.218c1.604,1.397,2.753,3.885,2.969,6.782H151V4.218z M146.031,13H149v6.782C147.396,18.385,146.247,15.897,146.031,13z
		 M151,13h2.969c-0.216,2.897-1.365,5.385-2.969,6.782V13z"/>
	<path id="path3289" fill="#FFFFFF" d="M146.354,20.348l1.409-0.478"/>
	<path id="path3240" sodipodi:ry="10" sodipodi:rx="10" sodipodi:cy="65" sodipodi:cx="75" sodipodi:type="arc" fill="#FFFFFF" d="
		M159,12c0,4.971-4.029,9-9,9s-9-4.029-9-9s4.029-9,9-9S159,7.029,159,12z"/>
	<path id="path3285" sodipodi:nodetypes="cccccccccccccccccccccccc" fill="#808080" d="M147.188,4.378l-2.08,1.21l1.77,1.152
		l1.548,2.616l1.856,0.956l3.206,0.787h-0.028l-0.253,1.856l0.703,0.872l0.619-0.169l-1.182,3.713l0.788-0.338l0.675-1.125
		l2.672-2.446l0.394-1.379l-0.795-1.64l-4.099,0.037l-1.606-2.007l3.335-2.947l-1.869-0.812l-1.604,1.209l-1.04-1.294l-0.591,0.366
		L147.188,4.378z"/>
	<path id="path3291" sodipodi:nodetypes="cccccc" fill="#808080" d="M144.256,17.504l1.291-1.073l4.07,1.519l-0.229,0.699
		l2.795,1.088l-4.295,0.051"/>
</g>
</svg>
